{"title":"No Escape {2015} CAM XVID AC3-MRG","uid":12368593,"size":1244088726,"categoryP":"video","categoryS":"movies","magnet":"?xt=urn:btih:65e657da01ad2e3d7ff70519d98f6be23a9699e9&amp;dn=No+Escape+%7B2015%7D+CAM+XVID+AC3-MRG&amp;tr=udp%3A%2F%2Ftracker.openbittorrent.com%3A80&amp;tr=udp%3A%2F%2Fopen.demonii.com%3A1337&amp;tr=udp%3A%2F%2Ftracker.coppersurfer.tk%3A6969&amp;tr=udp%3A%2F%2Fexodus.desync.com%3A6969","seeders":262,"leechers":87,"uploader":"SaM","files":8,"time":1441585662,"description":"No Escape {2015} CAM XVID MP3-MRG\n\n &lt;a href=&quot;\nhttp://www.imdb.com/title/tt1781922/&quot; rel=&quot;nofollow&quot; target=&quot;_NEW&quot;&gt;\nhttp://www.imdb.com/title/tt1781922/&lt;/a&gt;\n\n\nHC SUBS....................\n\nFormat : AVI\nFormat/Info : Audio Video Interleave\nFile size : 1.16 GiB\nDuration : 1h 33mn\nOverall bit rate : 1 781 Kbps\nWriting library : VirtualDub build 35491/release\n\nVideo\nID : 0\nFormat : MPEG-4 Visual\nFormat profile : Advanced Simple@L5\nFormat settings, BVOP : 2\nFormat settings, QPel : No\nFormat settings, GMC : No warppoints\nFormat settings, Matrix : Default (H.263)\nMuxing mode : Packed bitstream\nCodec ID : XVID\nCodec ID/Hint : XviD\nDuration : 1h 33mn\nBit rate : 1 641 Kbps\nWidth : 620 pixels\nHeight : 364 pixels\nDisplay aspect ratio : 1.703\nFrame rate : 29.970 fps\nColor space : YUV\nChroma subsampling : 4:2:0\nBit depth : 8 bits\nScan type : Progressive\nCompression mode : Lossy\nBits/(Pixel*Frame) : 0.243\nStream size : 1.07 GiB (92%)\nWriting library : XviD 73\n\nAudio\nID : 1\nFormat : MPEG Audio\nFormat version : Version 1\nFormat profile : Layer 3\nMode : Joint stereo\nMode extension : MS Stereo\nCodec ID : 55\nCodec ID/Hint : MP3\nDuration : 1h 33mn\nBit rate mode : Constant\nBit rate : 128 Kbps\nChannel(s) : 2 channels\nSampling rate : 48.0 KHz\nCompression mode : Lossy\nStream size : 85.2 MiB (7%)\nAlignment : Split accross interleaves\nInterleave, duration : 33 ms (1.00 video frame)\nInterleave, preload duratio : 500 ms\n &lt;a href=&quot;\nhttp://extraimago.com/image/RFz&quot; rel=&quot;nofollow&quot; target=&quot;_NEW&quot;&gt;\nhttp://extraimago.com/image/RFz&lt;/a&gt; &lt;a href=&quot;\nhttp://extraimago.com/image/RF0&quot; rel=&quot;nofollow&quot; target=&quot;_NEW&quot;&gt;\nhttp://extraimago.com/image/RF0&lt;/a&gt; &lt;a href=&quot;\nhttp://extraimago.com/image/RFJ&quot; rel=&quot;nofollow&quot; target=&quot;_NEW&quot;&gt;\nhttp://extraimago.com/image/RFJ&lt;/a&gt; &lt;a href=&quot;\nhttp://extraimago.com/image/RFK&quot; rel=&quot;nofollow&quot; target=&quot;_NEW&quot;&gt;\nhttp://extraimago.com/image/RFK&lt;/a&gt;","torrent":{"xt":"urn:btih:65e657da01ad2e3d7ff70519d98f6be23a9699e9","amp;dn":"No+Escape+%7B2015%7D+CAM+XVID+AC3-MRG","amp;tr":["udp%3A%2F%2Ftracker.openbittorrent.com%3A80","udp%3A%2F%2Fopen.demonii.com%3A1337","udp%3A%2F%2Ftracker.coppersurfer.tk%3A6969","udp%3A%2F%2Fexodus.desync.com%3A6969"],"infoHash":"65e657da01ad2e3d7ff70519d98f6be23a9699e9","infoHashBuffer":{"type":"Buffer","data":[101,230,87,218,1,173,46,61,127,247,5,25,217,143,107,226,58,150,153,233]},"announce":[],"urlList":[]}}